<?xml version="1.0" encoding="iso-8859-1"?>
<!-- Generator: Adobe Illustrator 19.0.0, SVG Export Plug-In . SVG Version: 6.00 Build 0)  -->
<svg version="1.1" id="Capa_1" xmlns="http://www.w3.org/2000/svg" xmlns:xlink="http://www.w3.org/1999/xlink" x="0px" y="0px"
	 viewBox="0 0 511.999 511.999" style="enable-background:new 0 0 511.999 511.999;" xml:space="preserve">
<path style="fill:#FCD2BE;" d="M174.278,38.67v76.783c0,35.188-28.538,63.725-63.736,63.725c-9.428,0-18.369-2.048-26.419-5.718
	v-0.01c-19.474-8.881-33.698-27.28-36.709-49.259c-2.828-0.993-5.484-2.616-7.755-4.886c-8.029-8.019-8.029-21.036,0-29.055
	c8.019-8.039,21.046-8.039,29.075,0l5.353-30.687l3.65-20.894L174.278,38.67L174.278,38.67z"/>
<path style="fill:#FAB998;" d="M84.123,173.45c-19.474-8.881-33.698-27.28-36.709-49.259c-2.828-0.993-5.484-2.616-7.755-4.886
	c-8.029-8.019-8.029-21.036,0-29.055c8.019-8.039,21.046-8.039,29.075,0l5.353-30.687l16.778,3.406
	C83.809,75.166,54.014,119.68,84.123,173.45z"/>
<path style="fill:#6B4B3D;" d="M204.072,7.598c0,30.585-24.797,55.372-55.372,55.372H90.865v5.14
	c0,12.226-9.915,22.131-22.141,22.131c-5.92-5.92-14.568-7.471-21.908-4.653V62.97c0-30.575,24.797-55.372,55.372-55.372
	C102.189,7.598,204.072,7.598,204.072,7.598z"/>
<path style="fill:#5B3D2D;" d="M147.381,7.598h-45.193c-30.575,0-55.372,24.797-55.372,55.372v22.617
	c7.34-2.818,15.987-1.267,21.908,4.653c12.226,0,22.141-9.905,22.141-22.131v-5.14h1.145C92.009,32.395,116.806,7.598,147.381,7.598
	z"/>
<path style="fill:#EF4A6E;" d="M159.943,332.581c0,0-39.071,19.535-78.628,11.892c-14.801-2.849-29.673-9.509-42.588-22.425
	c0,0,12.378-82.916,35.573-131.374c3.082-6.437,6.356-12.267,9.823-17.214l14.426,1.115l29.156,2.261
	c0,4.055,0.517,11.993,1.581,22.343C132.896,234.581,142.81,298.326,159.943,332.581z"/>
<path style="fill:#D8254F;" d="M81.315,344.473c-14.801-2.849-29.673-9.509-42.588-22.425c0,0,15.886-106.425,45.396-148.588
	l14.426,1.115l4.177,4.126C91.929,200.873,66.646,286.668,81.315,344.473z"/>
<path style="fill:#F9CE55;" d="M436.085,244.13l-15.501-22.201L308.654,61.652c-5.201-19.262-3.173-54.003,50.557-54.003
	c11.851,0,23.651,0.213,34.965,1.389c39.993,4.156,73.944,20.377,82.632,82.014C487.959,170.125,436.085,244.13,436.085,244.13z"/>
<path style="fill:#E2A11E;" d="M436.085,244.13l-15.501-22.201c3.954-44.525,15.642-208.603-26.409-212.891
	c39.993,4.156,73.944,20.377,82.632,82.014C487.959,170.125,436.085,244.13,436.085,244.13z"/>
<path style="fill:#FCD2BE;" d="M443.273,119.305c-2.271,2.271-4.927,3.893-7.755,4.886c-3.568,26.054-22.881,47.079-48.032,53.182
	c-4.836,1.186-9.894,1.805-15.095,1.805c-35.198,0-63.736-28.538-63.736-63.725V61.652c0,0,28.254,1.014,39.405-10.138
	c16.19,21.015,37.226,23.945,51.175,23.033c0-0.01,0-0.01,0-0.01c8.931-0.588,14.963-2.747,14.963-2.747v18.461l0.01-0.01
	c5.92-5.92,14.568-7.471,21.907-4.653c2.605,0.993,5.049,2.555,7.157,4.663C451.302,98.27,451.302,111.286,443.273,119.305z"/>
<path style="fill:#FAB998;" d="M443.273,119.305c-2.271,2.271-4.927,3.893-7.755,4.886c-3.568,26.054-22.881,47.079-48.032,53.182
	c33.099-18.157,12.033-101.701,11.75-102.826c0-0.01,0-0.01,0-0.01c8.931-0.588,14.963-2.747,14.963-2.747v18.461l0.01-0.01
	c5.92-5.92,14.568-7.471,21.907-4.653c2.605,0.993,5.049,2.555,7.157,4.663C451.302,98.27,451.302,111.286,443.273,119.305z"/>
<path style="fill:#00C7A9;" d="M308.832,371.865c44.2,10.117,81.973,9.043,107.875,5.748c23.388-2.98,37.094-7.776,37.094-7.776
	c0-134.831-52.229-197.715-52.229-197.715l-11.587,1.277l-33.667,3.731C349.575,253.7,308.832,371.865,308.832,371.865z"/>
<path style="fill:#04AF92;" d="M416.707,377.613c23.388-2.98,37.094-7.776,37.094-7.776c0-134.831-52.229-197.715-52.229-197.715
	l-11.587,1.277l-2.494,3.974C387.49,177.374,434.488,278.092,416.707,377.613z"/>
<path d="M127.489,100.561V90.019c0-4.199-3.404-7.603-7.603-7.603s-7.603,3.404-7.603,7.603v10.541c0,4.199,3.404,7.603,7.603,7.603
	S127.489,104.76,127.489,100.561z"/>
<path d="M139.688,90.019v10.541c0,4.199,3.404,7.603,7.603,7.603s7.603-3.404,7.603-7.603V90.019c0-4.199-3.404-7.603-7.603-7.603
	S139.688,85.82,139.688,90.019z"/>
<path d="M103.297,129.596c-2.083-3.647-6.729-4.913-10.374-2.829c-3.646,2.083-4.913,6.728-2.829,10.374
	c6.518,11.405,17.68,17.845,32.283,18.625c0.138,0.007,0.275,0.011,0.412,0.011c4.012,0,7.37-3.143,7.586-7.198
	c0.224-4.193-2.994-7.774-7.187-7.998C113.74,140.076,107.233,136.482,103.297,129.596z"/>
<path d="M40.589,129.439c6.569,32.975,35.916,57.343,69.952,57.343c39.336,0,71.339-31.998,71.339-71.329V79.616
	c0-4.199-3.404-7.603-7.603-7.603s-7.603,3.404-7.603,7.603v35.837c0,30.945-25.181,56.122-56.132,56.122
	c-27.91,0-51.811-20.815-55.594-48.417c-0.387-2.825-2.323-5.196-5.013-6.141c-1.851-0.651-3.5-1.69-4.903-3.092
	c-2.445-2.442-3.791-5.69-3.791-9.147c0-3.457,1.346-6.706,3.795-9.15c1.312-1.312,2.823-2.3,4.507-2.942
	c4.773-1.833,10.191-0.682,13.805,2.932c0.044,0.044,0.098,0.097,0.143,0.14c1.551,1.477,3.58,2.178,5.575,2.088
	c15.415-0.171,28.052-12.132,29.301-27.27H148.7c34.723,0,62.972-28.249,62.972-62.972c0-4.199-3.404-7.603-7.603-7.603H102.19
	C67.467-0.001,39.218,28.248,39.218,62.971c0,4.199,3.404,7.603,7.603,7.603s7.603-3.404,7.603-7.603
	c0-26.339,21.428-47.766,47.766-47.766h93.671c-3.652,22.738-23.41,40.162-47.161,40.162H90.864c-4.199,0-7.603,3.404-7.603,7.603
	v5.137c0,7.136-5.17,13.087-11.96,14.304c-7.694-5.886-18.002-7.456-27.192-3.928c-3.682,1.404-6.987,3.554-9.821,6.388
	c-5.322,5.315-8.252,12.384-8.252,19.907s2.931,14.592,8.249,19.903C36.178,126.577,38.289,128.168,40.589,129.439z"/>
<path d="M66.892,188.564c-12.767,27.142-22.192,64.182-27.851,90.476c-0.884,4.106,1.728,8.15,5.833,9.033
	c0.539,0.117,1.078,0.171,1.607,0.171c3.506,0,6.658-2.439,7.426-6.005c5.492-25.519,14.59-61.361,26.745-87.202
	c1.787-3.8,0.156-8.329-3.643-10.116S68.681,184.764,66.892,188.564z"/>
<path d="M236.973,70.269c-4.199,0-7.603,3.404-7.603,7.603v36.94c-2.66,5.953-14.457,30.903-35.338,54.908
	c-17.288,19.875-35.917,33.81-55.715,41.754c-0.555-4.514-1.049-8.901-1.477-13.095c-0.426-4.178-4.159-7.215-8.335-6.793
	c-4.178,0.426-7.219,4.157-6.793,8.335c0.317,3.11,0.936,8.828,1.893,16.308c-11.581,2.848-23.529,3.748-35.81,2.682
	c-4.184-0.366-7.869,2.735-8.232,6.919c-0.362,4.183,2.735,7.869,6.919,8.232c3.671,0.317,7.317,0.476,10.951,0.476
	c9.572,0,19.002-1.111,28.245-3.291c4.219,28.502,11.864,69.004,24.092,97.446c-7.238,2.848-19.637,7.021-34.085,8.925
	c-28.182,3.715-51.313-2.447-68.825-18.322c0.486-2.976,1.256-7.538,2.299-13.227c0.757-4.13-1.977-8.092-6.107-8.85
	c-4.13-0.758-8.093,1.976-8.85,6.107c-1.959,10.674-2.954,17.321-2.996,17.599c-0.356,2.383,0.44,4.794,2.144,6.498
	c6.652,6.652,14.121,12.066,22.297,16.228c0.068,0.167,0.133,0.335,0.213,0.499c0.365,0.746,35.95,75.617-8.048,156.614
	c-1.28,2.356-1.225,5.212,0.147,7.516c1.372,2.304,3.853,3.716,6.535,3.716h26.352c4.199,0,7.603-3.404,7.603-7.603
	c0-4.199-3.404-7.603-7.603-7.603H66.831c19.395-41.725,19.964-80.81,16.7-107.139c-2.037-16.423-5.709-29.802-8.783-38.903
	c8.143,2.043,16.778,3.099,25.862,3.098c5.676,0,11.528-0.404,17.528-1.215c5.305-0.717,10.329-1.699,14.974-2.804
	c7.276,18.965,26.604,82.778-10.421,150.937c-1.28,2.356-1.225,5.212,0.147,7.516c1.372,2.304,3.853,3.716,6.535,3.716h26.352
	c4.199,0,7.603-3.404,7.603-7.603c0-4.199-3.404-7.603-7.603-7.603H141.71c19.395-41.725,19.964-80.81,16.7-107.139
	c-2.463-19.863-7.316-35.267-10.614-44.041c9.285-3.134,15.113-6.013,15.547-6.23c1.803-0.902,3.175-2.484,3.813-4.396
	c0.638-1.913,0.489-4.001-0.413-5.805c-12.07-24.14-21.043-65.7-26.369-102.36c23.441-8.645,45.436-24.479,65.13-47.122
	c25.408-29.21,37.969-59.132,38.491-60.391c0.383-0.924,0.58-1.913,0.58-2.913V77.873C244.576,73.674,241.172,70.269,236.973,70.269
	z"/>
<path d="M409.276,183.047c-3.653,2.071-4.935,6.712-2.863,10.365c14.553,25.662,38.765,81.599,39.753,170.776
	c-15.388,4.198-64.032,14.777-127.427,2.031c8.428-25.579,34.064-106.441,42.957-169.505c0.587-4.158-2.308-8.005-6.467-8.591
	c-4.16-0.589-8.004,2.309-8.591,6.467c-0.46,3.264-0.969,6.58-1.517,9.934c-46.895-26.527-72.728-80.58-76.836-89.72V77.871
	c0-4.199-3.404-7.603-7.603-7.603c-4.199,0-7.603,3.404-7.603,7.603v38.523c0,1,0.197,1.989,0.58,2.913
	c1.224,2.951,29.856,70.67,88.65,100.984c-13.362,69.49-40.36,148.208-40.666,149.094c-0.704,2.04-0.507,4.283,0.54,6.169
	c1.048,1.887,2.848,3.239,4.95,3.721c13.58,3.108,26.549,5.192,38.77,6.494c-4.128,28.852-3.535,68.707,16.175,111.02h-14.004
	c-4.199,0-7.603,3.404-7.603,7.603c0,4.199,3.404,7.603,7.603,7.603h26.348c2.681,0,5.164-1.412,6.535-3.716
	c1.371-2.304,1.425-5.16,0.146-7.517c-23.521-43.292-24.309-84.703-20.012-113.74c6.491,0.383,12.738,0.562,18.696,0.562
	c5.398,0,10.558-0.144,15.479-0.391c-3.91,28.728-3.022,67.966,16.366,109.596h-14.015c-4.199,0-7.603,3.404-7.603,7.603
	c0,4.199,3.404,7.603,7.603,7.603h26.358c2.681,0,5.164-1.412,6.535-3.716s1.426-5.16,0.147-7.516
	c-23.796-43.808-24.327-85.677-19.859-114.754c27.468-2.832,44.199-8.537,45.514-8.997c3.049-1.068,5.091-3.946,5.091-7.176
	c0-95.957-26.166-156.424-41.763-183.928C417.57,182.256,412.928,180.975,409.276,183.047z"/>
<path d="M370.654,100.561V90.019c0-4.199-3.404-7.603-7.603-7.603c-4.199,0-7.603,3.404-7.603,7.603v10.541
	c0,4.199,3.404,7.603,7.603,7.603C367.25,108.164,370.654,104.76,370.654,100.561z"/>
<path d="M343.249,100.561V90.019c0-4.199-3.404-7.603-7.603-7.603c-4.199,0-7.603,3.404-7.603,7.603v10.541
	c0,4.199,3.404,7.603,7.603,7.603C339.845,108.164,343.249,104.76,343.249,100.561z"/>
<path d="M352.562,148.579c0.216,4.055,3.572,7.198,7.586,7.198c0.136,0,0.275-0.003,0.412-0.011
	c14.602-0.781,25.766-7.22,32.283-18.625c2.083-3.646,0.817-8.291-2.829-10.374c-3.645-2.083-8.29-0.817-10.374,2.829
	c-3.935,6.887-10.442,10.48-19.891,10.985C355.555,140.805,352.338,144.386,352.562,148.579z"/>
<path d="M443.785,35.568c13.501,12.136,21.842,30.631,25.495,56.545c7.269,51.545-13.83,101.494-27.053,126.68
	c-1.952,3.717-0.52,8.314,3.197,10.266c1.128,0.592,2.337,0.873,3.528,0.873c2.735,0,5.379-1.48,6.739-4.07
	c14.074-26.807,36.511-80.105,28.646-135.872c-4.175-29.603-14.115-51.104-30.388-65.731c-3.123-2.807-7.931-2.551-10.738,0.572
	C440.404,27.954,440.661,32.761,443.785,35.568z"/>
<path d="M308.387,69.25c2.763,0.099,24.118,0.578,38.456-7.461C365.757,81.776,390.24,84.06,406.6,81.47v8.781
	c0,3.076,1.858,5.842,4.699,7.019c2.84,1.178,6.116,0.521,8.291-1.653c3.614-3.614,9.033-4.764,13.822-2.925
	c1.668,0.636,3.178,1.624,4.494,2.939c2.445,2.442,3.792,5.69,3.792,9.147s-1.346,6.706-3.795,9.151
	c-1.4,1.4-3.048,2.439-4.899,3.089c-2.691,0.945-4.626,3.316-5.013,6.141c-3.783,27.602-27.684,48.415-55.594,48.415
	c-30.951,0-56.132-25.176-56.132-56.122V84.686c0-4.199-3.404-7.603-7.603-7.603c-4.199,0-7.603,3.404-7.603,7.603v30.768
	c0,39.33,32.003,71.329,71.339,71.329c34.037,0,63.383-24.367,69.952-57.342c2.3-1.27,4.41-2.861,6.303-4.755
	c5.322-5.314,8.252-12.384,8.252-19.907c0-7.522-2.931-14.592-8.249-19.903c-2.837-2.837-6.142-4.987-9.808-6.385
	c-5.549-2.131-11.501-2.406-17.04-0.997v-5.702c0-2.463-1.207-4.77-3.217-6.195c-2.008-1.426-4.599-1.784-6.924-0.971
	c-1.412,0.495-34.86,11.761-57.58-17.747c-1.334-1.733-3.35-2.808-5.533-2.949c-2.179-0.142-4.321,0.664-5.868,2.211
	c-5.229,5.229-18.054,7.423-27.831,7.865c-0.949-6.72-1.009-17.07,5.187-25.163c6.903-9.015,20.082-13.587,39.171-13.587
	c23.396,0,47.874,0.723,67.431,9.364c3.841,1.697,8.33-0.041,10.028-3.882c1.697-3.841-0.042-8.33-3.882-10.028
	c-22.266-9.839-48.556-10.662-73.577-10.662c-24.072,0-41.313,6.577-51.245,19.548c-12.374,16.161-8.771,36.182-6.647,44.04
	C302.19,66.855,305.055,69.131,308.387,69.25z"/>
<path d="M414.049,302.923c-9.141,4.113-15.296-0.591-24.58-8.607c-6.634-5.728-13.495-11.649-22.326-10.926
	c-5.55,0.456-10.553,3.442-15.293,9.127c-2.689,3.226-2.254,8.02,0.972,10.708c3.226,2.689,8.021,2.254,10.708-0.972
	c1.882-2.259,3.652-3.61,4.856-3.708c2.484-0.208,7.082,3.773,11.145,7.281c6.714,5.797,16.022,13.832,28.128,13.832
	c3.914,0,8.121-0.84,12.628-2.868c6.384-2.872,10.733-7.977,12.579-14.763c6.93-25.484-24.88-71.344-28.529-76.489
	c-2.429-3.425-7.173-4.23-10.598-1.802c-3.424,2.429-4.233,7.173-1.806,10.6c0.082,0.116,8.259,11.701,15.549,25.77
	c11.999,23.157,11.86,33.707,10.709,37.934C417.536,300.451,416.296,301.912,414.049,302.923z"/>
<path d="M256.16,44.418V34.281c0-4.199-3.404-7.603-7.603-7.603s-7.603,3.404-7.603,7.603v10.138c0,4.199,3.404,7.603,7.603,7.603
	S256.16,48.617,256.16,44.418z"/>
<path d="M277.793,59.856c1.945,0,3.892-0.742,5.377-2.227l5.069-5.069c2.969-2.969,2.968-7.784,0-10.753
	c-2.97-2.969-7.784-2.968-10.753,0l-5.069,5.069c-2.969,2.969-2.968,7.784,0,10.753C273.903,59.114,275.848,59.856,277.793,59.856z"
	/>
<path d="M208.872,52.56l5.069,5.069c1.485,1.484,3.431,2.227,5.377,2.227c1.945,0,3.892-0.742,5.376-2.226
	c2.969-2.969,2.969-7.784,0-10.753l-5.069-5.069c-2.97-2.968-7.784-2.969-10.753,0C205.904,44.775,205.904,49.589,208.872,52.56z"/>
<g>
</g>
<g>
</g>
<g>
</g>
<g>
</g>
<g>
</g>
<g>
</g>
<g>
</g>
<g>
</g>
<g>
</g>
<g>
</g>
<g>
</g>
<g>
</g>
<g>
</g>
<g>
</g>
<g>
</g>
</svg>
